<?xml version="1.0" encoding="utf-8"?>
<!-- Generator: Adobe Illustrator 17.0.0, SVG Export Plug-In . SVG Version: 6.00 Build 0)  -->
<!DOCTYPE svg PUBLIC "-//W3C//DTD SVG 1.1//EN" "http://www.w3.org/Graphics/SVG/1.1/DTD/svg11.dtd">
<svg version="1.1" id="Layer_1" xmlns="http://www.w3.org/2000/svg" xmlns:xlink="http://www.w3.org/1999/xlink" x="0px" y="0px"
	 width="216px" height="144px" viewBox="0 0 216 144" enable-background="new 0 0 216 144" xml:space="preserve">
<path fill="#FFFFFF" d="M138.306,137.586l-9.029-20.224c-7.039,0.626-14.28,0.942-21.591,0.942c-7.53,0-15-0.339-22.268-1.007
	l-9.057,20.288H58.178l4.409-23.648c-29.574-6.155-46.375-17.582-46.375-31.767c0-13.979,16.526-25.377,45.556-31.593
	c3.618-26.71,23.56-46.962,47.186-46.962c23.892,0,43.88,20.514,47.271,47.555c27.366,6.347,42.938,17.526,42.938,31
	c0,14.098-17.449,25.825-47.057,31.908l4.383,23.507H138.306z"/>
<g>
	<path d="M192.681,82.171c0-10.976-17.099-20.551-42.497-25.679c-1.23-25.87-19.215-46.396-41.231-46.396
		c-21.871,0-39.759,20.262-41.198,45.894c-26.81,4.988-45.064,14.839-45.064,26.182c0,11.672,19.342,21.766,47.45,26.604
		l-4.163,22.33h6.179l9.255-20.733c8.276,0.938,17.101,1.451,26.273,1.451c8.924,0,17.523-0.482,25.603-1.372l9.22,20.653h6.179
		l-4.14-22.208C173.029,104.107,192.681,93.938,192.681,82.171z M71.128,55.393C73.44,32.85,89.51,15.375,109.052,15.375
		c19.684,0,35.842,17.729,37.971,40.508c-11.765-2.148-25.139-3.369-39.337-3.369C94.596,52.515,82.202,53.549,71.128,55.393z"/>
	<ellipse fill="#FED600" cx="107.686" cy="79.429" rx="76.435" ry="21.32"/>
	<ellipse fill="#B41F24" cx="42.086" cy="79.279" rx="7.046" ry="6.56"/>
	<ellipse fill="#ED1C24" cx="59.552" cy="84.334" rx="7.046" ry="6.563"/>
	<ellipse cx="77.467" cy="88.027" rx="7.046" ry="6.56"/>
	<ellipse cx="96.663" cy="89.483" rx="7.046" ry="6.562"/>
	<ellipse cx="115.859" cy="89.483" rx="7.045" ry="6.562"/>
	<ellipse cx="133.354" cy="88.027" rx="7.046" ry="6.56"/>
	<path d="M158.623,84.869c0,3.624-3.154,6.559-7.046,6.559c-3.891,0-7.045-2.935-7.045-6.559c0-3.625,3.154-6.561,7.045-6.561
		C155.469,78.309,158.623,81.244,158.623,84.869z"/>
	<ellipse cx="169.315" cy="80.251" rx="7.045" ry="6.56"/>
	<ellipse cx="98.777" cy="38.174" rx="10.933" ry="10.223"/>
	<path opacity="0.8" fill="#FFFFFF" d="M117.791,20.349c0,0,24.244,9.031,24.244,29.471h-13.312
		C128.724,49.82,130.588,28.437,117.791,20.349z"/>
</g>
</svg>
