<?xml version="1.0" standalone="no"?>
<!DOCTYPE svg PUBLIC "-//W3C//DTD SVG 20010904//EN"
 "http://www.w3.org/TR/2001/REC-SVG-20010904/DTD/svg10.dtd">
<svg version="1.0" xmlns="http://www.w3.org/2000/svg"
 width="700.000000pt" height="700.000000pt" viewBox="0 0 700.000000 700.000000"
 preserveAspectRatio="xMidYMid meet">
<metadata>
Created by potrace 1.11, written by Peter Selinger 2001-2013
</metadata>
<g transform="translate(0.000000,700.000000) scale(0.100000,-0.100000)"
fill="#000000" stroke="none">
<path d="M3430 5783 c-272 -40 -450 -105 -644 -235 -243 -164 -457 -419 -594
-709 -97 -205 -168 -466 -187 -684 -9 -105 -6 -101 -98 -119 -99 -19 -269 -58
-352 -80 -33 -9 -85 -24 -115 -32 -64 -17 -256 -81 -285 -94 -11 -5 -56 -23
-100 -40 -222 -86 -454 -228 -580 -354 -153 -153 -207 -301 -170 -462 31 -135
137 -274 296 -386 13 -10 44 -32 69 -50 44 -31 287 -158 365 -190 267 -109
608 -205 955 -268 87 -16 101 -20 96 -28 -2 -4 -7 -28 -11 -52 -3 -25 -8 -52
-10 -60 -2 -8 -7 -31 -10 -50 -3 -19 -15 -82 -27 -140 -11 -58 -22 -114 -23
-125 -2 -16 -35 -191 -71 -377 -6 -33 4 -35 136 -28 l94 5 173 385 173 385 37
-1 c35 -1 100 -6 243 -19 379 -34 845 -38 1320 -10 45 2 145 11 255 22 33 3
69 6 80 7 26 1 11 32 255 -518 l116 -261 113 0 c62 0 114 2 116 5 2 4 -10 78
-29 166 -2 12 -7 37 -10 55 -10 63 -67 373 -81 444 -8 39 -17 90 -20 115 -4
24 -9 48 -11 52 -3 5 3 8 13 8 34 0 319 59 482 100 996 251 1492 683 1267
1105 -42 80 -47 86 -131 171 -134 134 -324 248 -610 367 -156 65 -538 177
-742 217 -46 9 -63 17 -64 29 0 9 -2 23 -4 31 -1 8 -5 44 -9 80 -31 321 -148
656 -321 920 -75 115 -234 292 -340 381 -190 158 -434 270 -675 310 -65 11
-283 19 -330 12z m295 -208 c63 -9 209 -47 219 -56 6 -5 18 -9 28 -9 26 0 205
-91 280 -141 254 -171 462 -432 593 -744 54 -128 117 -369 130 -499 l8 -68
-29 5 c-16 3 -51 9 -79 13 -27 4 -52 8 -55 9 -3 0 -32 5 -65 9 -32 4 -67 9
-76 11 -10 2 -45 6 -78 10 -33 3 -70 8 -82 10 -13 3 -55 7 -94 11 -38 3 -79 8
-90 10 -11 2 -58 6 -105 10 -47 3 -101 7 -120 9 -246 24 -916 24 -1195 0 -48
-4 -147 -12 -250 -20 -27 -2 -70 -7 -95 -9 -25 -3 -70 -8 -100 -11 -48 -5
-173 -21 -309 -41 l-44 -6 7 60 c30 263 144 570 298 802 239 357 619 604 983
637 33 3 62 7 64 9 5 4 209 -4 256 -11z"/>
<path d="M3038 5091 c-82 -27 -140 -63 -192 -123 -157 -179 -107 -450 104
-571 165 -95 377 -67 511 67 81 81 115 167 111 284 -7 243 -287 422 -534 343z"/>
</g>
</svg>
