<?xml version="1.0" encoding="utf-8"?>
<!-- Generator: Adobe Illustrator 21.1.0, SVG Export Plug-In . SVG Version: 6.00 Build 0)  -->
<svg version="1.1" xmlns="http://www.w3.org/2000/svg" xmlns:xlink="http://www.w3.org/1999/xlink" x="0px" y="0px"
	 viewBox="0 0 209 209" style="enable-background:new 0 0 209 209;" xml:space="preserve">
<style type="text/css">
	.st0{fill:#1A6D7F;}
	.st1{fill:#FFFFFF;}
	.st2{clip-path:url(#clipping_path_1_);}
	.st3{fill:#FED600;}
	.st4{opacity:0.8;fill:#FFFFFF;enable-background:new    ;}
	.st5{fill:#B41F24;}
	.st6{fill:#ED1C24;}
</style>
<g id="background">
</g>
<g id="Layer_1">
	<g id="backgroundcircle">
		<path class="st0" d="M104.5,202.5c-54,0-98-44-98-98c0-54,44-98,98-98s98,44,98,98C202.5,158.6,158.6,202.5,104.5,202.5z"/>
		<path class="st1" d="M104.5,13c50.5,0,91.5,41,91.5,91.5s-41,91.5-91.5,91.5S13,155.1,13,104.5S54,13,104.5,13 M104.5,0
			C46.9,0,0,46.9,0,104.5S46.9,209,104.5,209S209,162.1,209,104.5S162.1,0,104.5,0L104.5,0z"/>
	</g>
	<g id="clippedship">
		<defs>
			<circle id="clipping_path" cx="104.5" cy="104.5" r="91.5"/>
		</defs>
		<clipPath id="clipping_path_1_">
			<use xlink:href="#clipping_path"  style="overflow:visible;"/>
		</clipPath>
		<g id="ship" class="st2">
			<path id="shipshape" d="M212.7,108.9c0-11-17.1-20.6-42.5-25.7C169,57.4,151,36.8,129,36.8c-21.9,0-39.8,20.3-41.2,45.9
				c-26.8,5-45.1,14.8-45.1,26.2c0,11.7,19.3,21.8,47.5,26.6L86,157.8h6.2l9.3-20.7c8.3,0.9,17.1,1.5,26.3,1.5
				c8.9,0,17.5-0.5,25.6-1.4l9.2,20.7h6.2l-4.1-22.2C193,130.8,212.7,120.7,212.7,108.9z M91.1,82.1c2.3-22.5,18.4-40,37.9-40
				c19.7,0,35.8,17.7,38,40.5c-11.8-2.1-25.1-3.4-39.3-3.4C114.6,79.3,102.2,80.3,91.1,82.1z"/>
			<ellipse id="shipcolor" class="st3" cx="127.7" cy="106.2" rx="76.4" ry="21.3"/>
			<ellipse id="alien" cx="118.8" cy="64.9" rx="10.9" ry="10.2"/>
			<path id="shiphighlight" class="st4" d="M137.8,47.1c0,0,24.2,9,24.2,29.5h-13.3C148.7,76.6,150.6,55.2,137.8,47.1z"/>
			<ellipse id="light1" class="st5" cx="62.1" cy="106" rx="7" ry="6.6"/>
			<ellipse id="light2" class="st6" cx="79.6" cy="111.1" rx="7" ry="6.6"/>
			<ellipse id="light3" cx="97.5" cy="114.8" rx="7" ry="6.6"/>
			<ellipse id="light4" cx="116.7" cy="116.2" rx="7" ry="6.6"/>
			<ellipse id="light5" cx="135.9" cy="116.2" rx="7" ry="6.6"/>
			<ellipse id="light6" cx="153.4" cy="114.8" rx="7" ry="6.6"/>
			<path id="light7" d="M178.6,111.6c0,3.6-3.2,6.6-7,6.6c-3.9,0-7-2.9-7-6.6c0-3.6,3.2-6.6,7-6.6
				C175.5,105.1,178.6,108,178.6,111.6z"/>
			<ellipse id="light8" cx="189.3" cy="107" rx="7" ry="6.6"/>
		</g>
	</g>
</g>
</svg>
