<?xml version="1.0" encoding="utf-8"?>
<!-- Generator: Adobe Illustrator 23.0.6, SVG Export Plug-In . SVG Version: 6.00 Build 0)  -->
<svg version="1.1" id="Layer_1" xmlns="http://www.w3.org/2000/svg" xmlns:xlink="http://www.w3.org/1999/xlink" x="0px" y="0px"
	 viewBox="0 0 198.1 141.1" style="enable-background:new 0 0 198.1 141.1;" xml:space="preserve">
<style type="text/css">
	.st0{fill:#FFFFFF;}
</style>
<g id="background">
</g>
<ellipse id="alien" class="st0" cx="88.6" cy="32.8" rx="12.7" ry="11.9"/>
<ellipse id="light1" class="st0" cx="22.6" cy="80.7" rx="8.2" ry="7.7"/>
<ellipse id="light2" class="st0" cx="42.9" cy="86.6" rx="8.2" ry="7.7"/>
<ellipse id="light3" class="st0" cx="63.8" cy="90.9" rx="8.2" ry="7.7"/>
<ellipse id="light4" class="st0" cx="86.2" cy="92.6" rx="8.2" ry="7.7"/>
<ellipse id="light5" class="st0" cx="108.6" cy="92.6" rx="8.2" ry="7.7"/>
<ellipse id="light6" class="st0" cx="129" cy="90.9" rx="8.2" ry="7.7"/>
<path id="light7" class="st0" d="M158.3,87.2c0,4.2-3.7,7.7-8.2,7.7s-8.2-3.4-8.2-7.7c0-4.2,3.7-7.7,8.2-7.7
	C154.7,79.6,158.3,83,158.3,87.2z"/>
<ellipse id="light8" class="st0" cx="170.8" cy="81.8" rx="8.2" ry="7.7"/>
<path class="st0" d="M198.1,84.1c0-12.8-19.9-24-49.5-30C147.2,24,126.2,0,100.6,0c-25.5,0-46.4,23.7-48,53.5C21.4,59.3,0,70.7,0,84
	c0,13.6,22.5,25.4,55.4,31l-4.9,26h7.2l10.8-24.1c9.7,1,19.9,1.7,30.6,1.7c10.4,0,20.4-0.6,29.8-1.6l10.7,24.1h7.2l-4.8-25.9
	C175.1,109.6,198.1,97.8,198.1,84.1z M100.5,6.2c23,0,41.7,20.6,44.3,47.2c-13.8-2.4-29.3-4-45.8-4c-15.3,0.2-29.7,1.3-42.7,3.4
	C59,26.6,77.8,6.2,100.5,6.2z M99,105.7c-49.2,0-89-11.1-89-24.8s39.8-24.8,89-24.8s89,11.1,89,24.8S148.2,105.7,99,105.7z"/>
</svg>
